<?xml version="1.0" encoding="UTF-8" standalone="no"?>
<svg
   xmlns:dc="http://purl.org/dc/elements/1.1/"
   xmlns:cc="http://creativecommons.org/ns#"
   xmlns:rdf="http://www.w3.org/1999/02/22-rdf-syntax-ns#"
   xmlns:svg="http://www.w3.org/2000/svg"
   xmlns="http://www.w3.org/2000/svg"
   xmlns:sodipodi="http://sodipodi.sourceforge.net/DTD/sodipodi-0.dtd"
   xmlns:inkscape="http://www.inkscape.org/namespaces/inkscape"
   clip-rule="evenodd"
   stroke-miterlimit="10"
   viewBox="0 0 800.00 800.00"
   id="svg2"
   version="1.1"
   inkscape:version="0.48.0 r9654"
   width="100%"
   height="100%"
   sodipodi:docname="ofs_logo_1.svg">
  <metadata
     id="metadata27">
    <rdf:RDF>
      <cc:Work
         rdf:about="">
        <dc:format>image/svg+xml</dc:format>
        <dc:type
           rdf:resource="http://purl.org/dc/dcmitype/StillImage" />
        <dc:title></dc:title>
      </cc:Work>
    </rdf:RDF>
  </metadata>
  <sodipodi:namedview
     pagecolor="#ffffff"
     bordercolor="#666666"
     borderopacity="1"
     objecttolerance="10"
     gridtolerance="10"
     guidetolerance="10"
     inkscape:pageopacity="0"
     inkscape:pageshadow="2"
     inkscape:window-width="1258"
     inkscape:window-height="883"
     id="namedview25"
     showgrid="false"
     inkscape:zoom="0.325"
     inkscape:cx="400"
     inkscape:cy="400"
     inkscape:window-x="396"
     inkscape:window-y="186"
     inkscape:window-maximized="0"
     inkscape:current-layer="svg2" />
  <desc
     id="desc4">SVG generated by Logo Design Studio Pro</desc>
  <defs
     id="defs6" />
  <g
     id="Background"
     transform="matrix(1.7378683,0,0,1.6002727,-299.708,-40.747189)">
    <path
       d="m 319.66602,373.021 c 0,38.29699 -31.05701,69.333 -69.35401,69.333 C 212.036,442.354 181,411.31799 181,373.021 c 0,-38.30799 31.036,-69.33301 69.31201,-69.33301 38.297,0 69.35401,31.026 69.35401,69.33301 z m 0,0"
       id="path9"
       inkscape:connector-curvature="0"
       style="fill:#f36e21;fill-opacity:1;stroke-width:0;stroke-linecap:square;stroke-linejoin:bevel" />
    <path
       d="m 201.074,451.94299 c 38.33701,20.05402 130.81501,51.456 243.28598,-84.59698 C 453.522,435.358 290.867,561.84198 201.074,451.94299 z m 0,0"
       id="path11"
       inkscape:connector-curvature="0"
       style="fill:#f36e21;fill-opacity:1;stroke-width:0;stroke-linecap:square;stroke-linejoin:bevel" />
    <path
       d="M 610.086,185.05499 C 575.20599,338.56799 487.98498,467.655 306.57901,507.78198 451.35599,542.64301 679.867,425.77899 610.086,185.05499 z m 0,0"
       id="path13"
       inkscape:connector-curvature="0"
       style="fill:#f36e21;fill-opacity:1;stroke-width:0;stroke-linecap:square;stroke-linejoin:bevel" />
    <path
       d="m 596.12402,132.72 c 0,55.64099 -45.10107,100.73999 -100.72601,100.73999 C 439.75302,233.45999 394.673,188.35998 394.673,132.72 394.67401,77.099998 439.754,32 495.39801,32 c 55.625,0 100.72601,45.099998 100.72601,100.72 z m 0,0"
       id="path15"
       inkscape:connector-curvature="0"
       style="fill:#f36e21;fill-opacity:1;stroke-width:0;stroke-linecap:square;stroke-linejoin:bevel" />
    <path
       d="m 319.66602,373.021 c 0,38.29699 -31.05701,69.333 -69.35401,69.333 C 212.036,442.354 181,411.31799 181,373.021 c 0,-38.30799 31.036,-69.33301 69.31201,-69.33301 38.297,0 69.35401,31.026 69.35401,69.33301 z m 0,0"
       id="path17"
       inkscape:connector-curvature="0"
       style="fill:#3fff6b;fill-opacity:1;stroke-width:0;stroke-linecap:square;stroke-linejoin:bevel" />
    <path
       d="m 201.074,451.94299 c 38.33701,20.05402 130.81501,51.456 243.28598,-84.59698 C 453.522,435.358 290.867,561.84198 201.074,451.94299 z m 0,0"
       id="path19"
       inkscape:connector-curvature="0"
       style="fill:#76ff8a;fill-opacity:1;stroke-width:0;stroke-linecap:square;stroke-linejoin:bevel" />
    <path
       d="M 610.08606,185.05499 C 575.20599,338.56802 487.98498,467.65503 306.57901,507.78198 451.35602,542.64301 679.867,425.77899 610.08606,185.05499 z m 0,0"
       id="path21"
       inkscape:connector-curvature="0"
       style="fill:#00ad00;fill-opacity:1;stroke-width:0;stroke-linecap:square;stroke-linejoin:bevel" />
    <path
       d="m 596.12402,132.72 c 0,55.64099 -45.10107,100.73999 -100.72601,100.73999 C 439.75302,233.45999 394.673,188.35998 394.673,132.72 394.67401,77.099998 439.754,32 495.39801,32 c 55.625,0 100.72601,45.099998 100.72601,100.72 z m 0,0"
       id="path23"
       inkscape:connector-curvature="0"
       style="fill:#009e00;fill-opacity:1;stroke-width:0;stroke-linecap:square;stroke-linejoin:bevel" />
  </g>
</svg>
