<?xml version="1.0" encoding="UTF-8"?>
<svg xmlns="http://www.w3.org/2000/svg" xmlns:xlink="http://www.w3.org/1999/xlink" clip-rule="evenodd" stroke-miterlimit="10" viewBox="0 0 800.00 800.00">
<desc>SVG generated by Logo Design Studio Pro</desc>

<defs>

</defs>
 <g id="Background">
<path d="M319.666016 373.020996 C 319.666016 411.317993 288.609009 442.354004 250.312012 442.354004 C 212.035995 442.354004 181.000000 411.317993 181.000000 373.020996 C 181.000000 334.713013 212.035995 303.687988 250.312012 303.687988 C 288.609009 303.687988 319.666016 334.713989 319.666016 373.020996 ZM319.666016 373.020996 " stroke-width="0.000000" stroke-linecap="square" stroke-linejoin="bevel" fill="#f36e21" fill-opacity="1.000000"/>

<path d="M201.074005 451.942993 C 239.411011 471.997009 331.889008 503.398987 444.359985 367.346008 C 453.522003 435.358002 290.867004 561.841980 201.074005 451.942993 ZM201.074005 451.942993 " stroke-width="0.000000" stroke-linecap="square" stroke-linejoin="bevel" fill="#f36e21" fill-opacity="1.000000"/>

<path d="M610.085999 185.054993 C 575.205994 338.567993 487.984985 467.654999 306.579010 507.781982 C 451.355988 542.643005 679.867004 425.778992 610.085999 185.054993 ZM610.085999 185.054993 " stroke-width="0.000000" stroke-linecap="square" stroke-linejoin="bevel" fill="#f36e21" fill-opacity="1.000000"/>

<path d="M596.124023 132.720001 C 596.124023 188.360992 551.022949 233.459991 495.398010 233.459991 C 439.753021 233.459991 394.673004 188.359985 394.673004 132.720001 C 394.674011 77.099998 439.753998 32.000000 495.398010 32.000000 C 551.023010 32.000000 596.124023 77.099998 596.124023 132.720001 ZM596.124023 132.720001 " stroke-width="0.000000" stroke-linecap="square" stroke-linejoin="bevel" fill="#f36e21" fill-opacity="1.000000"/>

<path d="M319.666016 373.020996 C 319.666016 411.317993 288.609009 442.354004 250.312012 442.354004 C 212.035995 442.354004 181.000000 411.317993 181.000000 373.020996 C 181.000000 334.713013 212.035995 303.687988 250.312012 303.687988 C 288.609009 303.687988 319.666016 334.713989 319.666016 373.020996 ZM319.666016 373.020996 " stroke-width="0.000000" stroke-linecap="square" stroke-linejoin="bevel" fill="#3fff6b" fill-opacity="1.000000"/>

<path d="M201.074005 451.942993 C 239.411011 471.997009 331.889008 503.398987 444.359985 367.346008 C 453.522003 435.358002 290.867004 561.841980 201.074005 451.942993 ZM201.074005 451.942993 " stroke-width="0.000000" stroke-linecap="square" stroke-linejoin="bevel" fill="#76ff8a" fill-opacity="1.000000"/>

<path d="M610.086060 185.054993 C 575.205994 338.568024 487.984985 467.655029 306.579010 507.781982 C 451.356018 542.643005 679.867004 425.778992 610.086060 185.054993 ZM610.086060 185.054993 " stroke-width="0.000000" stroke-linecap="square" stroke-linejoin="bevel" fill="#00ad00" fill-opacity="1.000000"/>

<path d="M596.124023 132.720001 C 596.124023 188.360992 551.022949 233.459991 495.398010 233.459991 C 439.753021 233.459991 394.673004 188.359985 394.673004 132.720001 C 394.674011 77.099998 439.753998 32.000000 495.398010 32.000000 C 551.023010 32.000000 596.124023 77.099998 596.124023 132.720001 ZM596.124023 132.720001 " stroke-width="0.000000" stroke-linecap="square" stroke-linejoin="bevel" fill="#009e00" fill-opacity="1.000000"/>
</g>

</svg>